<svg width="20" height="21" viewBox="0 0 20 21" fill="none" xmlns="http://www.w3.org/2000/svg">
<path d="M0 21V2.33333C0 1.69167 0.228472 1.14236 0.685417 0.685417C1.14236 0.228472 1.69167 0 2.33333 0H9.33333C9.975 0 10.5243 0.228472 10.9812 0.685417C11.4382 1.14236 11.6667 1.69167 11.6667 2.33333V10.5H12.8333C13.475 10.5 14.0243 10.7285 14.4812 11.1854C14.9382 11.6424 15.1667 12.1917 15.1667 12.8333V18.0833C15.1667 18.4139 15.2785 18.691 15.5021 18.9146C15.7257 19.1382 16.0028 19.25 16.3333 19.25C16.6639 19.25 16.941 19.1382 17.1646 18.9146C17.3882 18.691 17.5 18.4139 17.5 18.0833V9.68333C17.325 9.78056 17.1403 9.84375 16.9458 9.87292C16.7514 9.90208 16.5472 9.91667 16.3333 9.91667C15.5167 9.91667 14.8264 9.63472 14.2625 9.07083C13.6986 8.50694 13.4167 7.81667 13.4167 7C13.4167 6.37778 13.5868 5.81875 13.9271 5.32292C14.2674 4.82708 14.7194 4.47222 15.2833 4.25833L12.8333 1.80833L14.0583 0.583333L18.375 4.78333C18.6667 5.075 18.8854 5.41528 19.0312 5.80417C19.1771 6.19306 19.25 6.59167 19.25 7V18.0833C19.25 18.9 18.9681 19.5903 18.4042 20.1542C17.8403 20.7181 17.15 21 16.3333 21C15.5167 21 14.8264 20.7181 14.2625 20.1542C13.6986 19.5903 13.4167 18.9 13.4167 18.0833V12.25H11.6667V21H0ZM2.33333 8.16667H9.33333V2.33333H2.33333V8.16667ZM16.3333 8.16667C16.6639 8.16667 16.941 8.05486 17.1646 7.83125C17.3882 7.60764 17.5 7.33056 17.5 7C17.5 6.66944 17.3882 6.39236 17.1646 6.16875C16.941 5.94514 16.6639 5.83333 16.3333 5.83333C16.0028 5.83333 15.7257 5.94514 15.5021 6.16875C15.2785 6.39236 15.1667 6.66944 15.1667 7C15.1667 7.33056 15.2785 7.60764 15.5021 7.83125C15.7257 8.05486 16.0028 8.16667 16.3333 8.16667ZM2.33333 18.6667H9.33333V10.5H2.33333V18.6667ZM9.33333 18.6667H2.33333H9.33333Z" fill="#007BFF"/>
</svg>
